<svg xmlns="http://www.w3.org/2000/svg" width="20.281" height="25.352" viewBox="0 0 20.281 25.352">
  <path id="bell_icon_top" data-name="bell icon top" d="M160-858.451v-1.9h2.535v-9.634a7.786,7.786,0,0,1,1.569-4.769,6.713,6.713,0,0,1,4.136-2.646v-.7a1.834,1.834,0,0,1,.555-1.347,1.834,1.834,0,0,1,1.347-.554,1.834,1.834,0,0,1,1.347.554,1.834,1.834,0,0,1,.555,1.347v.7a6.713,6.713,0,0,1,4.136,2.646,7.786,7.786,0,0,1,1.569,4.769v9.634h2.535v1.9ZM170.141-868.021Zm0,13.373a2.441,2.441,0,0,1-1.79-.745,2.442,2.442,0,0,1-.745-1.791h5.07a2.442,2.442,0,0,1-.745,1.791A2.441,2.441,0,0,1,170.141-854.648Zm-5.7-5.7h11.408v-9.634a5.5,5.5,0,0,0-1.664-4.041,5.5,5.5,0,0,0-4.04-1.664,5.5,5.5,0,0,0-4.04,1.664,5.5,5.5,0,0,0-1.664,4.041Z" transform="translate(-160 880)" fill="#707070"/>
</svg>
