<svg xmlns="http://www.w3.org/2000/svg" width="21.078" height="21.078" viewBox="0 0 21.078 21.078">
  <path id="search_icon" data-name="search icon" d="M139.789-819.922l-7.7-7.7a6.454,6.454,0,0,1-2.048,1.186,7.241,7.241,0,0,1-2.49.424,7.287,7.287,0,0,1-5.36-2.2,7.224,7.224,0,0,1-2.193-5.3,7.221,7.221,0,0,1,2.2-5.3,7.238,7.238,0,0,1,5.313-2.2,7.189,7.189,0,0,1,5.3,2.2,7.25,7.25,0,0,1,2.181,5.3,7.291,7.291,0,0,1-.41,2.425,7.432,7.432,0,0,1-1.23,2.2l7.728,7.67Zm-12.266-7.846a5.475,5.475,0,0,0,4.044-1.683,5.557,5.557,0,0,0,1.665-4.054,5.557,5.557,0,0,0-1.665-4.055,5.475,5.475,0,0,0-4.044-1.683,5.56,5.56,0,0,0-4.085,1.683,5.529,5.529,0,0,0-1.682,4.055,5.528,5.528,0,0,0,1.682,4.054A5.559,5.559,0,0,0,127.523-827.768Z" transform="translate(-120 841)" fill="#707070"/>
</svg>
