<svg xmlns="http://www.w3.org/2000/svg" width="19" height="19.437" viewBox="0 0 19 19.437">
  <path id="total_records" data-name="total records" d="M132.148-901.51l-3.887-3.887,1.045-1.045,2.843,2.843,5.807-5.807L139-908.362Zm5.345-10.059h-1.458V-916.6h-1.458v2.187H122.916V-916.6h-1.458v14.578h6.1v1.458h-6.1a1.416,1.416,0,0,1-1.045-.413A1.416,1.416,0,0,1,120-902.02V-916.6a1.416,1.416,0,0,1,.413-1.045,1.416,1.416,0,0,1,1.045-.413h4.908a2.348,2.348,0,0,1,.838-1.4,2.366,2.366,0,0,1,1.543-.547,2.366,2.366,0,0,1,1.543.547,2.348,2.348,0,0,1,.838,1.4h4.908a1.416,1.416,0,0,1,1.045.413,1.416,1.416,0,0,1,.413,1.045Zm-8.747-5.029a.94.94,0,0,0,.692-.279.94.94,0,0,0,.279-.692.94.94,0,0,0-.279-.692.94.94,0,0,0-.692-.279.94.94,0,0,0-.692.279.94.94,0,0,0-.279.692.94.94,0,0,0,.279.692A.94.94,0,0,0,128.747-916.6Z" transform="translate(-120 920)" fill="#fff"/>
</svg>
