<svg xmlns="http://www.w3.org/2000/svg" width="17.14" height="17.14" viewBox="0 0 17.14 17.14">
  <path id="update_icon" data-name="update icon" d="M128.642-822.86a8.376,8.376,0,0,1-3.357-.678,8.862,8.862,0,0,1-2.75-1.845,8.617,8.617,0,0,1-1.857-2.738,8.376,8.376,0,0,1-.678-3.357,8.207,8.207,0,0,1,.678-3.333,8.549,8.549,0,0,1,1.857-2.7,8.8,8.8,0,0,1,2.75-1.821,8.5,8.5,0,0,1,3.357-.667,8.1,8.1,0,0,1,3.607.833,9.059,9.059,0,0,1,2.94,2.285V-839.4h1.428v4.952h-4.975v-1.428h2.5a8.278,8.278,0,0,0-2.464-1.952,6.474,6.474,0,0,0-3.035-.738,7.091,7.091,0,0,0-5.094,2.035,6.648,6.648,0,0,0-2.119,4.987,7.042,7.042,0,0,0,2.095,5.142,6.923,6.923,0,0,0,5.118,2.119,6.751,6.751,0,0,0,5.023-2.095,6.989,6.989,0,0,0,2.047-5.071h1.428a8.345,8.345,0,0,1-2.476,6.082A8.139,8.139,0,0,1,128.642-822.86Zm2.9-4.69-3.666-3.619v-5.094h1.428v4.5l3.261,3.19Z" transform="translate(-120 840)" fill="#fff"/>
</svg>
